PathFileType	4	(X/Y/Z)	s09c0102.trc
DataRate	CameraRate	NumFrames	NumMarkers	Units	OrigDataRate	OrigDataStartFrame	OrigNumFrames
200	200	6	50	mm	200	1000	2000
Frame#	Time	racr			lacr			c7			jug			rlel			rdr			llel			ldr			s2			lic			ric			lasi			rasi			rpsi			lpsi			rgt			lgt			rth1			rth2			rth3			rth4			rlfc			rmfc			rsh1			rsh2			rsh3			rsh4			rlmal			rmmal			rcal			rtoe			rmt5			lth1			lth2			lth4			lth3			llfc			lmfc			llmal			lmmal			lcal			lmt5			lsh1			lsh2			lsh3			lsh4			ltoe			SBIKE			LBIKE			RBIKE			
		X1	Y1	Z1	X2	Y2	Z2	X3	Y3	Z3	X4	Y4	Z4	X5	Y5	Z5	X6	Y6	Z6	X7	Y7	Z7	X8	Y8	Z8	X9	Y9	Z9	X10	Y10	Z10	X11	Y11	Z11	X12	Y12	Z12	X13	Y13	Z13	X14	Y14	Z14	X15	Y15	Z15	X16	Y16	Z16	X17	Y17	Z17	X18	Y18	Z18	X19	Y19	Z19	X20	Y20	Z20	X21	Y21	Z21	X22	Y22	Z22	X23	Y23	Z23	X24	Y24	Z24	X25	Y25	Z25	X26	Y26	Z26	X27	Y27	Z27	X28	Y28	Z28	X29	Y29	Z29	X30	Y30	Z30	X31	Y31	Z31	X32	Y32	Z32	X33	Y33	Z33	X34	Y34	Z34	X35	Y35	Z35	X36	Y36	Z36	X37	Y37	Z37	X38	Y38	Z38	X39	Y39	Z39	X40	Y40	Z40	X41	Y41	Z41	X42	Y42	Z42	X43	Y43	Z43	X44	Y44	Z44	X45	Y45	Z45	X46	Y46	Z46	X47	Y47	Z47	X48	Y48	Z48	X49	Y49	Z49	X50	Y50	Z50	
1000	5.0000	489.567845	1236.253084	-39.508067	586.650210	1202.556191	-323.465929	521.120824	1258.808124	-177.817647	471.464040	1127.455973	-189.466829	499.082980	1007.672036	61.606591	700.631997	880.632719	-26.773583	518.248524	1028.587903	-531.441868	696.387062	882.000876	-442.434035	34.256708	1135.244815	-290.746357	185.774415	1109.086699	-418.722173	157.649521	1147.606598	-129.079737	215.248444	1053.712920	-386.552680	202.192090	1096.674163	-139.873192	55.575751	1173.219424	-231.849479	72.650755	1164.942225	-341.021652	150.614705	1051.574172	-72.194264	128.270712	968.395226	-447.007248	273.617689	1000.562103	-84.145160	360.803798	993.555644	-95.739701	431.964180	942.287374	-90.727066	369.116085	1015.664376	-123.679519	513.697508	865.151439	-117.698724	499.464432	839.484308	-218.489893	446.968789	787.431417	-86.212532	416.585886	703.092237	-93.750698	349.703144	646.469523	-87.996918	438.220476	689.079293	-124.337085	291.640142	557.769777	-83.919771	290.021481	568.413224	-160.747779	204.627538	535.024494	-115.333043	464.144892	489.077527	-131.614983	384.286595	483.697118	-62.736491	192.394180	846.704223	-439.066432	250.875145	784.941710	-435.509426	284.806366	801.837890	-430.695232	271.864748	697.647348	-424.173047	300.421550	605.042224	-399.727990	317.810066	591.218734	-303.850380	131.329467	280.446341	-408.067720	155.307248	281.426959	-337.123822	60.096772	260.727181	-369.013675	208.213424	170.244430	-429.215380	255.754217	518.332016	-422.032517	237.387161	434.179158	-411.685702	178.203892	368.050040	-412.193443	260.474020	425.756802	-381.157540	299.633112	158.693329	-360.123181	-65.179237	852.387902	-241.405964	21.152798	83.990856	-442.046807	21.116046	84.021258	-43.977233	
1001	5.0050	490.706620	1235.516953	-39.770343	585.646566	1202.229262	-324.733578	521.347983	1258.560133	-178.866986	471.888833	1127.434867	-190.238316	499.174039	1007.278282	61.957731	700.294743	880.630289	-26.738017	516.071517	1026.920348	-531.179356	695.995134	881.791777	-442.161315	33.915228	1135.683404	-288.299154	184.344554	1109.637643	-417.087878	157.773976	1147.766494	-126.815868	214.261897	1054.177652	-385.232474	202.403942	1096.860635	-138.104669	55.562053	1173.342684	-229.472754	72.188640	1165.763918	-338.790803	150.222731	1049.787386	-70.540756	127.905532	969.363958	-445.820217	273.278121	996.543142	-83.417466	360.507705	989.609230	-94.186527	431.036902	937.537881	-89.462396	369.226070	1011.825093	-121.730696	512.341768	859.861849	-117.658165	497.892781	834.167094	-217.480049	447.624152	780.835815	-85.415749	418.860953	695.892769	-93.095138	353.106475	638.091774	-87.369949	440.543712	682.604376	-124.039595	297.066621	548.177785	-83.716467	295.252399	559.131821	-160.823049	210.474843	522.495207	-114.909594	471.561953	486.981732	-131.286514	392.191477	478.186336	-62.337075	193.715253	847.993231	-437.269461	253.148265	787.183408	-433.925111	286.814933	804.499881	-429.318333	275.573590	700.231379	-423.193746	304.920244	607.326309	-399.026725	321.896728	593.792148	-303.227929	126.104211	288.074838	-407.520639	150.316248	288.265662	-336.516581	54.438347	270.356721	-368.224794	199.695535	175.791264	-429.003840	257.746267	522.006530	-421.307880	236.850974	438.563240	-411.153914	175.597949	374.195684	-411.558505	259.485490	429.402817	-380.251578	290.966244	161.351608	-360.116096	-65.119627	852.409289	-241.274663	21.165426	84.027155	-442.036462	21.124997	84.014267	-43.971083	
1002	5.0100	492.094174	1234.724525	-40.282727	584.825889	1201.287745	-325.983619	521.590433	1258.463080	-179.886756	472.360719	1127.386818	-191.232145	499.391415	1006.860805	61.959093	700.027815	880.486965	-26.715052	513.590670	1024.899038	-531.033911	694.912862	881.495126	-441.035328	33.561545	1136.010170	-285.795704	182.770406	1110.101378	-415.358788	158.034475	1147.425922	-124.720797	213.131338	1054.580293	-383.771230	202.739333	1096.985284	-136.183480	55.553660	1173.312927	-227.007684	71.372904	1165.712170	-336.394300	149.701482	1047.602250	-69.024348	127.455454	969.919217	-444.165352	273.175645	992.807923	-81.408944	360.327014	984.622712	-92.396092	430.175771	931.853715	-88.337508	369.502180	1007.231270	-119.643811	511.595004	853.841494	-116.925936	496.543365	828.418442	-216.819817	448.220336	773.439045	-84.330087	421.153531	687.707640	-92.651142	356.453365	628.827025	-86.821524	442.564259	675.413176	-123.848855	302.419100	538.029998	-83.487389	300.033181	549.245171	-160.549850	216.294536	509.344959	-114.585773	478.619141	484.166400	-130.789920	399.603631	472.021429	-61.943896	195.457926	849.400384	-435.661072	255.920808	789.652325	-432.109358	289.165822	807.486487	-427.448079	279.856261	703.143969	-421.941728	309.843802	609.915822	-398.262254	326.029343	596.930266	-301.974656	121.177276	296.072087	-406.925101	145.711925	295.567068	-335.821773	49.194990	280.452281	-367.323545	191.459681	181.923640	-428.769081	259.826870	525.944354	-420.730484	236.469057	443.215749	-410.609340	173.284668	380.666093	-410.955378	258.712730	433.070338	-379.200124	282.583826	164.672472	-360.294503	-65.053007	852.447113	-241.133592	21.148900	83.917531	-442.162231	21.130372	84.013834	-43.947403	
1003	5.0150	493.607915	1233.914500	-41.043511	583.480243	1200.794308	-327.791760	521.982180	1258.251168	-182.038535	472.880159	1127.311326	-192.453534	499.511932	1006.570279	62.049549	699.422984	881.099374	-26.305232	510.964443	1022.606658	-530.925164	694.293251	881.356691	-440.739781	33.041472	1136.044946	-283.112254	181.167806	1110.526833	-413.605326	158.436780	1147.021703	-122.709724	211.949880	1055.048869	-382.361714	203.198099	1096.735972	-134.411431	55.400770	1172.807641	-224.334660	70.675455	1166.187846	-333.898600	149.323333	1045.041779	-67.432228	127.217002	970.474359	-442.567319	273.168834	988.329069	-79.392081	360.181746	979.353276	-90.346340	429.315479	925.267919	-87.132219	369.922946	1001.930610	-117.401746	510.357717	847.269685	-116.552702	495.129704	821.801483	-215.900916	448.641737	765.274464	-83.358233	423.105163	679.251339	-92.264001	359.628688	618.983770	-86.399664	444.415986	667.525306	-123.755132	307.681703	527.467822	-82.910048	304.905926	538.912982	-160.477846	222.194845	495.738943	-114.390566	485.430139	480.370903	-130.817673	406.808847	465.121106	-61.551793	197.573100	851.031366	-434.166119	259.076808	792.407586	-430.190086	291.885081	810.671208	-425.102435	284.337578	706.121370	-420.633954	314.953678	612.714602	-397.538190	330.009152	600.159170	-301.186440	116.523226	304.565517	-406.241533	141.382004	303.175987	-335.208441	44.310137	290.841057	-366.405668	183.565601	188.620330	-428.528183	262.136590	530.072873	-420.083277	236.250360	448.133180	-410.110436	171.095679	387.516464	-410.268279	258.033456	437.337895	-378.567621	274.451475	168.636528	-360.418712	-64.983309	852.465552	-240.981035	21.168144	83.941646	-442.114318	21.141414	84.010450	-43.934892	
1004	5.0200	495.338845	1233.098179	-42.018442	582.143383	1200.388102	-330.221745	522.344908	1257.869978	-181.721881	473.447677	1127.208138	-193.907699	499.664798	1006.305506	62.078059	699.007733	880.811185	-26.086613	508.247545	1020.094608	-530.967851	693.634483	881.191826	-440.534794	31.053299	1136.883279	-279.008961	179.412225	1110.881211	-411.807250	158.979187	1146.235787	-120.630300	210.741837	1055.571066	-380.697115	203.747665	1096.283644	-132.586282	55.427787	1172.381493	-221.644273	69.862580	1166.466919	-331.377618	149.010608	1041.874711	-65.974369	127.024160	970.893198	-440.915190	273.203416	983.377526	-77.541174	360.038367	973.521666	-88.136837	428.447448	918.132617	-86.408093	370.086470	996.461652	-114.992397	508.834032	839.829809	-116.281362	493.741068	814.554754	-215.075981	448.911907	756.457915	-82.650469	424.918499	670.213764	-92.073142	362.688784	608.640914	-86.170906	446.211943	659.222423	-123.738162	313.004143	516.539863	-82.512101	309.557389	528.029845	-160.248332	228.054189	481.929909	-114.262185	491.536362	475.740373	-131.059971	413.673599	457.630410	-61.209672	199.961347	852.819248	-432.830949	262.439890	795.198361	-428.245202	294.802058	814.028200	-422.532493	289.187208	709.256048	-418.823576	320.191929	615.576149	-396.833111	333.811640	603.229894	-300.476596	112.193242	313.360057	-405.621405	137.153416	311.286836	-334.471370	39.743917	301.408727	-365.547324	176.123653	195.796123	-428.335369	264.383593	534.402866	-419.556812	236.067057	453.299352	-409.495885	169.075002	394.663171	-409.636096	257.421063	442.128065	-378.204614	266.664189	173.229675	-360.452439	-64.892341	852.504683	-240.828163	21.162856	83.979661	-442.107809	21.147336	83.998653	-43.916975	
1005	5.0250	497.269066	1232.339916	-43.255306	580.766507	1199.979349	-333.301485	522.804762	1257.207935	-186.054488	474.063707	1127.076753	-195.599873	499.807689	1006.102919	62.132666	698.794233	880.752239	-25.900000	505.421167	1017.360230	-531.058837	692.939388	881.007749	-440.442811	31.609164	1136.051269	-277.264375	177.695469	1111.237470	-409.985306	159.625307	1145.387764	-118.238566	209.418223	1055.862079	-379.203482	204.403439	1095.578923	-130.737260	55.377816	1171.646381	-218.776328	68.670180	1165.933844	-328.564086	148.707376	1038.572328	-64.486905	126.982607	971.379487	-439.200429	273.396876	978.313564	-75.506686	359.839688	967.440380	-85.798652	427.012375	910.466129	-84.935563	370.432079	991.771054	-111.726510	507.030418	832.078602	-115.736625	492.273214	806.994964	-214.286541	448.880783	747.492847	-82.072946	426.504631	660.794716	-91.974294	365.644396	598.047787	-86.045299	447.811103	650.624580	-123.919055	317.919124	505.544980	-81.844090	314.192978	516.911660	-160.138898	233.923916	468.020750	-114.296790	497.854645	470.102389	-130.573776	420.263131	449.550896	-60.978353	202.585677	854.770862	-431.448490	265.996102	798.154525	-426.158683	297.807306	817.461477	-419.727787	294.017845	712.564750	-417.096306	325.677326	618.526728	-396.645185	337.512597	606.363659	-299.830854	107.866801	322.393474	-405.262688	133.235287	319.826433	-333.895364	35.509530	312.238355	-364.721205	169.021912	203.504581	-428.062560	266.671261	538.994842	-419.110341	235.950251	458.696743	-409.021513	167.212058	402.112204	-409.024151	256.938325	446.881296	-377.638249	259.294385	178.656753	-360.616855	-64.802112	852.541507	-240.698419	21.185005	84.004367	-442.110646	21.158494	83.991725	-43.894760	
